<?xml version="1.0" standalone="no"?>
<!DOCTYPE svg PUBLIC "-//W3C//DTD SVG 20010904//EN"
 "http://www.w3.org/TR/2001/REC-SVG-20010904/DTD/svg10.dtd">
<svg version="1.0" xmlns="http://www.w3.org/2000/svg"
 width="1024.000000pt" height="1024.000000pt" viewBox="0 0 1024.000000 1024.000000"
 preserveAspectRatio="xMidYMid meet">
<metadata>
Created by potrace 1.16, written by Peter Selinger 2001-2019
</metadata>
<g transform="translate(0.000000,1024.000000) scale(0.100000,-0.100000)"
fill="#000000" stroke="none">
<path d="M5840 8953 c-94 -106 -250 -366 -250 -415 0 -15 -9 -18 -49 -18 l-48
0 -54 73 c-128 174 -250 287 -310 287 -36 -1 -77 -66 -109 -178 -15 -53 -44
-152 -64 -220 -20 -68 -36 -139 -36 -159 0 -29 -14 -52 -80 -135 -45 -55 -92
-117 -106 -139 -28 -45 -23 -47 -127 35 -38 29 -114 79 -170 110 -182 101
-239 136 -415 253 -96 63 -204 132 -240 153 -37 20 -105 61 -152 90 -47 29
-123 71 -170 94 -47 24 -104 54 -126 69 -23 14 -70 36 -105 48 -75 26 -108 22
-150 -21 -52 -51 -33 -125 63 -248 133 -170 272 -334 307 -364 22 -18 61 -62
87 -98 26 -35 95 -112 153 -170 58 -58 128 -132 154 -165 72 -90 175 -192 206
-205 16 -6 68 -61 119 -124 106 -130 179 -202 216 -212 34 -8 33 -26 -5 -127
-31 -81 -34 -85 -193 -242 -88 -88 -238 -229 -333 -313 -242 -214 -331 -337
-373 -515 -12 -49 -20 -117 -20 -169 0 -76 -2 -89 -19 -98 -40 -21 -48 -13
-55 53 -22 211 -249 373 -474 337 -34 -6 -74 -15 -88 -21 -25 -9 -32 -5 -93
57 -45 46 -87 77 -131 98 -58 28 -75 31 -155 30 -69 0 -104 -6 -148 -23 -118
-46 -237 -194 -237 -295 0 -29 -5 -48 -13 -50 -84 -24 -117 -44 -175 -102
-128 -130 -172 -309 -118 -487 l14 -47 -101 -67 c-56 -37 -126 -90 -156 -117
-103 -96 -185 -250 -232 -435 -24 -96 -26 -320 -3 -453 19 -110 63 -236 109
-313 79 -130 246 -289 389 -368 47 -26 86 -49 86 -51 0 -1 -16 -49 -36 -107
-21 -57 -37 -122 -37 -144 -1 -143 125 -277 299 -319 53 -12 331 -85 474 -124
30 -8 98 -25 150 -37 183 -43 385 -96 404 -106 28 -16 213 -51 281 -53 184 -6
292 88 309 269 3 39 24 147 46 240 62 263 168 748 189 865 11 58 43 215 71
350 28 135 56 271 63 304 9 51 16 62 52 89 56 42 110 110 147 185 30 61 31 62
73 62 59 0 187 44 267 90 77 46 134 101 218 210 52 67 69 81 122 104 34 15 91
33 127 41 58 12 70 12 125 -6 103 -31 104 -32 66 -120 -45 -106 -152 -310
-255 -484 -362 -613 -459 -800 -545 -1051 -44 -131 -73 -197 -106 -247 -93
-141 -221 -414 -252 -537 -53 -215 -67 -339 -58 -532 9 -208 64 -418 149 -573
171 -313 303 -492 403 -551 86 -50 112 -17 113 141 2 200 80 359 244 495 82
68 257 153 382 186 99 27 106 27 565 35 256 4 490 12 520 17 203 36 499 136
702 237 219 110 490 320 681 530 234 257 386 561 488 975 49 197 75 745 43
898 -17 81 -19 148 -14 477 1 111 -3 247 -9 305 -25 219 -97 483 -187 681 -18
42 -36 96 -39 120 -28 244 -101 481 -211 686 -174 324 -379 556 -679 765 -223
155 -422 252 -671 328 l-71 21 -32 97 c-83 243 -230 451 -400 563 -101 67
-133 67 -191 2z m171 -165 c103 -84 236 -300 295 -478 26 -81 28 -95 28 -280
1 -159 -2 -208 -17 -265 -24 -89 -104 -254 -157 -323 -23 -30 -40 -61 -38 -70
8 -44 97 -12 178 64 26 24 50 44 54 44 15 0 163 -113 257 -196 168 -148 276
-283 361 -450 114 -223 159 -409 160 -664 1 -222 -27 -337 -129 -530 -132
-247 -219 -335 -531 -534 -38 -24 -49 -57 -33 -92 16 -35 64 -52 167 -60 115
-8 235 13 411 70 147 49 262 116 353 207 52 52 64 84 58 154 -3 36 -6 40 -27
37 -14 -1 -49 -21 -79 -45 -178 -139 -330 -222 -472 -258 -116 -29 -118 -26
-33 50 187 164 294 317 381 543 71 181 77 215 76 458 0 251 -11 320 -79 520
-125 365 -305 593 -672 853 -87 61 -111 82 -103 92 6 7 24 65 40 129 27 106
29 126 24 246 -5 133 -3 140 34 121 9 -6 62 -27 117 -47 282 -104 600 -314
805 -530 204 -216 368 -512 443 -800 52 -202 60 -272 54 -478 -9 -266 -49
-437 -151 -636 -71 -138 -150 -241 -283 -371 -95 -92 -119 -110 -153 -115 -22
-4 -40 -10 -40 -15 0 -5 -6 -9 -14 -9 -20 0 -40 -61 -24 -72 18 -11 -111 -140
-182 -182 -30 -18 -92 -56 -136 -84 -165 -103 -434 -225 -564 -256 -36 -8 -95
-22 -131 -31 -36 -8 -75 -15 -86 -15 -11 0 -43 -7 -69 -15 -27 -8 -148 -35
-269 -61 -342 -72 -581 -152 -774 -258 -196 -107 -299 -175 -373 -244 -27 -25
-48 -41 -48 -36 0 35 262 516 503 924 28 47 65 110 83 140 50 85 202 396 215
440 l12 40 111 0 c132 0 213 12 321 46 168 53 309 140 445 274 132 130 213
269 266 455 27 93 29 112 29 277 0 163 -2 179 -21 204 -27 37 -67 50 -106 33
l-30 -12 6 -126 c18 -321 -79 -577 -287 -766 -119 -108 -306 -204 -440 -227
-99 -16 -274 -3 -417 32 -183 45 -290 40 -420 -21 -88 -41 -118 -65 -210 -174
-44 -51 -101 -107 -128 -124 -58 -37 -161 -77 -224 -86 -44 -7 -46 -6 -41 14
9 35 -27 162 -71 244 -111 212 -286 341 -508 374 -57 8 -109 17 -117 19 -18 6
-9 154 15 234 42 142 108 220 434 512 213 190 348 327 384 389 14 25 37 76 49
112 l24 67 52 -55 c50 -52 56 -55 102 -55 73 0 154 45 256 143 99 95 194 217
243 314 19 37 36 70 37 71 7 14 349 85 364 76 6 -3 22 -31 35 -61 44 -99 110
-162 154 -148 32 10 25 57 -30 184 -78 184 -85 218 -84 426 1 162 3 190 27
280 37 140 125 319 225 458 38 53 28 54 113 -15z m-2446 -223 c55 -30 108 -58
118 -61 10 -3 16 -11 14 -17 -5 -18 -106 -76 -142 -83 -29 -5 -37 0 -95 60
-72 75 -95 105 -86 113 15 16 63 42 76 42 9 1 61 -24 115 -54z m1975 -185 c0
-5 -4 -19 -9 -32 -30 -77 -43 -318 -27 -468 l8 -65 -86 -18 c-140 -29 -261
-33 -347 -12 -65 16 -80 24 -120 66 -25 26 -65 57 -88 68 -22 12 -41 25 -41
30 0 4 22 39 49 77 57 82 176 196 253 242 71 42 218 102 277 112 67 11 131 11
131 0z m-1621 -44 c42 -24 93 -51 114 -61 20 -9 37 -23 37 -31 0 -7 -20 -27
-44 -44 -50 -33 -203 -110 -222 -110 -6 0 -18 10 -27 23 -8 12 -42 49 -75 83
-34 34 -62 66 -64 73 -3 11 165 108 191 110 8 1 48 -19 90 -43z m429 -263 c72
-37 132 -71 132 -75 0 -15 -91 -94 -148 -128 -32 -19 -98 -48 -146 -65 l-88
-30 -89 94 c-49 51 -89 97 -89 101 0 5 24 20 53 33 28 14 88 50 132 80 44 31
87 56 95 56 8 1 75 -29 148 -66z m291 -207 c7 -8 24 -18 39 -21 44 -10 187
-91 190 -106 4 -23 -61 -92 -140 -150 -65 -47 -153 -91 -262 -130 l-40 -14
-93 98 c-51 54 -93 104 -93 110 1 7 39 30 87 52 47 22 128 70 180 107 53 38
101 68 108 68 7 0 18 -6 24 -14z m428 -258 c16 -13 -9 -45 -145 -188 -95 -100
-203 -180 -242 -180 -16 0 -107 86 -99 94 2 2 36 20 74 39 88 44 191 118 275
197 58 54 68 60 95 54 16 -3 36 -11 42 -16z m-2526 -1383 c47 -17 112 -73 135
-117 8 -15 14 -54 14 -86 0 -98 31 -101 115 -12 94 101 277 93 376 -17 70 -77
85 -188 36 -262 -33 -50 -31 -82 9 -108 25 -16 28 -15 87 15 123 63 321 81
473 42 220 -56 373 -267 373 -515 1 -77 -17 -128 -63 -182 -35 -42 -48 -41
-69 2 -37 78 -155 175 -213 175 -23 0 -54 -41 -54 -71 0 -7 29 -43 65 -80 72
-75 90 -108 100 -190 9 -75 -8 -135 -53 -182 -37 -38 -122 -77 -167 -77 -49 0
-137 42 -185 89 -85 82 -92 183 -21 326 49 97 61 153 50 231 -9 65 -27 95 -88
142 -63 48 -71 44 -55 -25 28 -120 11 -210 -53 -275 -52 -53 -122 -81 -181
-72 -127 18 -192 96 -192 229 0 81 14 117 74 184 25 28 46 55 46 60 0 13 -47
41 -72 43 -13 0 -63 -16 -113 -37 -79 -33 -100 -38 -170 -38 -44 0 -96 5 -116
11 -51 17 -105 78 -126 141 -10 30 -28 60 -40 68 -21 14 -22 13 -27 -19 -3
-18 -8 -73 -12 -123 l-6 -90 -53 -52 c-117 -114 -288 -109 -409 13 -68 68 -90
122 -89 221 0 98 30 170 93 227 58 53 106 63 180 41 81 -25 88 -17 70 72 -18
92 -15 128 16 190 26 55 67 93 119 111 45 16 147 14 196 -3z m5569 -261 c43
-127 67 -321 69 -539 2 -187 0 -211 -29 -355 -17 -85 -44 -200 -61 -255 -59
-189 -230 -502 -378 -690 -249 -317 -665 -589 -1077 -705 -60 -17 -131 -37
-159 -45 -27 -8 -144 -24 -260 -35 -115 -12 -216 -23 -223 -25 -7 -3 -85 -11
-175 -20 -222 -21 -278 -30 -459 -76 -220 -55 -338 -107 -518 -227 -155 -102
-295 -254 -388 -422 -70 -125 -131 -342 -133 -474 l-1 -61 -25 53 c-32 69 -80
261 -94 376 -26 230 25 527 132 764 69 152 221 369 326 466 148 136 344 275
489 349 163 83 620 219 864 257 124 19 497 119 625 167 305 113 629 318 831
526 207 213 355 393 429 522 66 117 153 341 175 453 7 34 14 62 15 62 2 0 13
-30 25 -66z m-5395 -687 c50 0 101 3 114 7 21 7 23 6 16 -10 -16 -41 -12 -123
9 -186 26 -78 102 -179 159 -212 46 -27 147 -47 202 -40 19 2 50 6 69 8 l33 4
5 -67 c7 -89 45 -171 111 -239 64 -66 125 -98 212 -112 68 -11 154 -1 198 22
10 5 21 7 24 5 2 -3 -1 -41 -7 -84 -12 -81 -24 -137 -109 -528 -28 -126 -64
-295 -80 -375 -16 -80 -36 -171 -46 -204 l-17 -58 -37 5 c-20 2 -62 16 -92 30
-30 14 -98 34 -152 46 -55 12 -107 26 -117 31 -9 5 -19 7 -22 5 -2 -2 -49 8
-104 24 -54 16 -164 43 -244 61 -80 17 -246 56 -370 85 -124 30 -252 59 -285
64 -176 29 -185 32 -185 56 0 12 11 73 25 136 14 63 37 170 51 239 14 69 32
148 40 175 8 28 24 95 35 150 19 97 36 172 99 438 16 70 37 165 44 210 32 178
34 185 73 203 33 16 139 105 155 131 6 8 20 7 55 -4 27 -8 89 -15 138 -16z
m-812 -51 c54 -44 131 -83 182 -91 22 -3 55 -8 73 -11 32 -5 32 -5 18 -33 -14
-26 -20 -28 -95 -35 -107 -9 -188 -35 -267 -87 -171 -111 -242 -267 -231 -509
5 -123 27 -207 74 -287 42 -72 210 -227 267 -246 9 -3 -21 -175 -34 -190 -8
-9 -155 78 -215 128 -61 49 -129 144 -185 256 -68 135 -80 187 -87 374 -5 142
-3 170 16 245 11 47 41 126 66 177 60 122 172 238 290 300 44 23 81 42 83 43
2 0 22 -15 45 -34z m240 -313 c5 -8 -2 -41 -81 -393 -28 -124 -60 -273 -73
-332 -15 -73 -27 -108 -36 -108 -27 0 -132 113 -167 179 -45 86 -61 169 -53
279 15 207 92 309 270 358 86 24 133 29 140 17z m6061 -322 c11 -74 -12 -378
-38 -486 -14 -55 -34 -141 -45 -191 -21 -96 -109 -313 -175 -429 -161 -286
-422 -572 -668 -732 -248 -161 -616 -304 -854 -333 -43 -5 -268 -12 -499 -15
-231 -4 -436 -8 -455 -11 -112 -13 -144 -21 -280 -70 -113 -40 -172 -68 -247
-117 -209 -135 -346 -344 -365 -557 l-3 -35 -29 48 c-70 117 -94 253 -77 432
14 149 41 250 102 375 107 222 261 371 516 499 232 116 460 166 895 196 336
23 396 33 665 106 467 128 799 337 1135 714 89 99 243 320 312 445 28 52 86
192 86 208 0 2 4 1 9 -2 4 -3 11 -23 15 -45z m-6056 -1171 c57 -11 154 -33
215 -49 62 -16 211 -53 332 -81 286 -68 883 -223 903 -236 7 -4 -21 -140 -32
-153 -6 -8 -29 -27 -50 -43 -53 -38 -91 -37 -283 13 -87 22 -225 58 -308 79
-82 21 -190 49 -240 63 -49 14 -171 41 -271 61 -270 53 -379 91 -424 150 -61
80 -68 120 -34 189 18 34 47 35 192 7z"/>
<path d="M5943 8542 c-13 -20 -40 -65 -61 -98 -89 -142 -121 -380 -80 -593 18
-97 133 -320 186 -361 23 -19 27 -19 43 -4 23 21 101 182 127 264 74 228 59
449 -43 635 -44 79 -128 195 -143 195 -4 0 -17 -17 -29 -38z m92 -371 c22
-104 19 -229 -6 -320 -24 -88 -42 -114 -57 -85 -15 28 -40 141 -47 209 -7 78
9 238 31 310 l19 58 22 -49 c12 -27 29 -82 38 -123z"/>
<path d="M5530 7179 c-14 -6 -72 -24 -130 -41 -110 -32 -241 -91 -300 -136
-65 -49 -130 -115 -130 -131 0 -79 75 -173 179 -224 58 -28 75 -32 146 -31 99
1 154 24 215 90 61 66 92 144 92 225 l-1 66 55 23 c57 23 90 59 80 85 -4 11
-22 15 -75 15 l-69 0 2 33 c1 36 -19 44 -64 26z"/>
<path d="M3974 6166 c-38 -17 -91 -80 -99 -118 -18 -80 32 -168 95 -168 95 0
167 102 161 228 -1 13 -12 34 -26 47 -28 29 -80 33 -131 11z"/>
</g>
</svg>
